<?xml version="1.0" encoding="utf-8"?>
<!-- Generator: Adobe Illustrator 21.1.0, SVG Export Plug-In . SVG Version: 6.00 Build 0)  -->
<svg version="1.1" id="Layer_1" xmlns="http://www.w3.org/2000/svg" xmlns:xlink="http://www.w3.org/1999/xlink" x="0px" y="0px"
	 viewBox="0 0 16 16" style="enable-background:new 0 0 16 16;" xml:space="preserve">
<style type="text/css">
	.White{fill:#FFFFFF;}
	.Blue{fill:#1177D7;}	
	.st0{opacity:0.75;}
	.st1{opacity:0.5;}
</style>
<g id="Question_1_">
	<circle class="Blue" cx="9" cy="9" r="7"/>
	<rect x="8" y="12" class="White" width="2" height="2"/>
	<path class="White" d="M11.8,5.8c-0.1-0.3-0.3-0.6-0.5-0.8c-0.2-0.3-0.5-0.5-0.9-0.7C10,4.1,9.5,4,8.9,4C8.5,4,8.1,4.1,7.7,4.3
		C7.4,4.4,7.1,4.6,6.8,4.9C6.5,5.2,6.3,5.6,6.2,6C6.1,6.3,6,6.6,6,7h1.8c0-0.1,0-0.2,0-0.3c0-0.2,0.1-0.4,0.2-0.6
		c0.1-0.2,0.2-0.3,0.4-0.4C8.6,5.6,8.8,5.6,9,5.6c0.3,0,0.6,0.1,0.8,0.3c0.2,0.2,0.3,0.5,0.3,0.9c0,0.2,0,0.4-0.1,0.6
		C9.9,7.6,9.8,7.7,9.6,7.9C9.5,8,9.3,8.1,9.2,8.3C9,8.4,8.8,8.6,8.7,8.7C8.6,8.9,8.4,9.2,8.3,9.4c-0.1,0.3-0.2,0.6-0.2,1V11h1.7
		v-0.5c0-0.3,0.1-0.5,0.2-0.7c0.1-0.2,0.3-0.3,0.4-0.5C10.6,9.2,10.8,9,11,8.9c0.2-0.1,0.4-0.3,0.5-0.5c0.2-0.2,0.3-0.4,0.4-0.7
		C11.9,7.4,12,7,12,6.6C12,6.4,11.9,6.1,11.8,5.8z"/>
</g>
</svg>
